<svg width="51" height="50" viewBox="0 0 51 50" fill="none" xmlns="http://www.w3.org/2000/svg">
<path d="M14.4277 0.176041C13.3427 0.572464 12.5499 1.29228 12.0178 2.37722L11.7362 2.95099L11.7049 12.2773L11.684 21.6037L11.1624 21.5411C10.5156 21.4681 9.91054 21.1551 9.38894 20.6335C8.75258 19.9971 8.52307 19.4651 8.47091 18.4845C8.42918 17.7334 8.46047 17.556 8.68998 17.0448C8.86733 16.6693 9.19073 16.2416 9.59758 15.8556C10.1296 15.3444 10.2235 15.1983 10.2235 14.8854C10.2235 14.1134 9.51412 13.7378 8.83603 14.1551C8.00146 14.6663 7.14602 15.8347 6.84349 16.8675C6.62442 17.6082 6.62442 19.0687 6.84349 19.8094C7.40683 21.7393 9.39937 23.3459 11.225 23.3459H11.684V25.8496V28.3533H11.3397H10.9955L10.7973 27.3518C10.693 26.7989 10.5156 26.2356 10.4113 26.1104C10.2965 25.9643 9.92098 25.7661 9.51412 25.6305C9.12813 25.5053 8.5022 25.2445 8.11621 25.0567C7.73022 24.8585 7.30251 24.702 7.16689 24.702C7.03127 24.702 6.53053 24.9524 6.04022 25.2654L5.16392 25.8287L4.6736 25.3593L4.18329 24.8794L4.42323 24.5038C4.55885 24.2952 4.80922 23.8988 4.997 23.6171C5.17435 23.325 5.3204 22.9912 5.3204 22.8555C5.3204 22.7199 5.16392 22.2922 4.9657 21.9062C4.77793 21.5202 4.57971 21.0925 4.53799 20.9465C4.29805 20.164 4.03724 19.6007 3.88076 19.5381C3.78687 19.486 3.25483 19.3503 2.71236 19.2252L1.72131 18.9956V18.3384V17.6812L2.71236 17.4517C3.25483 17.3265 3.78687 17.1909 3.88076 17.1387C4.03724 17.0761 4.29805 16.5128 4.53799 15.7304C4.57971 15.5843 4.77793 15.1566 4.9657 14.7706C5.16392 14.3846 5.3204 13.9569 5.3204 13.8213C5.3204 13.6752 5.05959 13.1745 4.74663 12.6946L4.18329 11.8183L4.66317 11.328L5.14305 10.8377L5.51861 11.0776C5.72725 11.2133 6.12367 11.4636 6.40534 11.6514C6.69744 11.8288 7.03127 11.9748 7.16689 11.9748C7.30251 11.9748 7.73022 11.8183 8.11621 11.6201C8.5022 11.4323 9.12813 11.1715 9.52456 11.0463C10.2757 10.796 10.5052 10.6291 10.5886 10.2744C10.8599 9.14769 11.1624 7.6246 11.1624 7.43682C11.1624 7.31163 11.0685 7.08213 10.9433 6.92564C10.7764 6.70657 10.6408 6.65441 10.2861 6.65441C9.66017 6.65441 9.50369 6.87348 9.22202 8.18793C9.0864 8.793 8.96122 9.30418 8.94035 9.31461C8.92992 9.31461 8.5335 9.48152 8.06405 9.6693L7.20862 10.0136L6.29059 9.43979C4.88225 8.55306 4.85095 8.55306 3.46347 9.90924C2.86884 10.5039 2.30551 11.1298 2.23248 11.3176C2.05513 11.7349 2.11773 11.9226 2.82711 13.0285L3.35915 13.8526L3.01489 14.7185C2.82711 15.1879 2.6602 15.5843 2.64977 15.6052C2.63933 15.6261 2.11773 15.7617 1.50223 15.8973C0.886733 16.0329 0.2921 16.2311 0.187779 16.325C0.0208643 16.4711 0 16.6901 0 18.3384C0 19.9867 0.0208643 20.2058 0.187779 20.3518C0.2921 20.4457 0.886733 20.6439 1.50223 20.7795C2.11773 20.9152 2.63933 21.0508 2.64977 21.0716C2.6602 21.0925 2.82711 21.4889 3.01489 21.9584L3.35915 22.8138L2.79582 23.7318C2.47242 24.2326 2.19075 24.7333 2.15946 24.8376C2.03427 25.1923 2.3681 25.6931 3.46347 26.7572C4.84052 28.1029 4.91354 28.1133 6.28016 27.2475L7.20862 26.6633L8.06405 27.0075C8.5335 27.1953 8.92992 27.3622 8.94035 27.3622C8.96122 27.3727 9.0864 27.8838 9.22202 28.4889C9.54542 29.9703 9.59758 30.0224 10.7555 30.0224H11.684L11.7049 38.5455L11.7362 47.079L12.0387 47.7049C12.4351 48.5082 13.228 49.301 14.0312 49.6975L14.6572 50H25.0372H35.4172L36.0431 49.6975C36.8464 49.301 37.6392 48.5082 38.0356 47.7049L38.3382 47.079L38.3695 37.7527L38.3903 28.4263L38.9119 28.4889C39.5587 28.5619 40.1638 28.8749 40.6854 29.3965C41.3218 30.0329 41.5513 30.5649 41.6034 31.5455C41.6451 32.2966 41.6139 32.474 41.3843 32.9747C41.2279 33.3294 40.8732 33.7989 40.4872 34.1744C39.8508 34.8108 39.7256 35.1029 39.9134 35.6036C40.0177 35.8644 40.5602 36.0939 40.9045 36.0209C41.3009 35.9375 42.2398 35.0716 42.6675 34.4039C43.6064 32.9434 43.6586 30.6797 42.7927 29.1879C41.9685 27.7691 40.2681 26.6841 38.8493 26.6841H38.3903V24.1804V21.6767H38.7346H39.0788L39.2771 22.6782C39.3814 23.2311 39.5587 23.7944 39.663 23.9196C39.7674 24.0657 40.1429 24.2534 40.5393 24.3891C40.9253 24.5143 41.5617 24.7751 41.9477 24.9733C42.3441 25.1715 42.7718 25.328 42.9074 25.328C43.0431 25.328 43.5438 25.0776 44.0341 24.7646L44.9104 24.2013L45.4007 24.6707L45.891 25.1506L45.6511 25.5262C45.5155 25.7348 45.2651 26.1312 45.0773 26.4129C44.9 26.705 44.7539 27.0388 44.7539 27.1745C44.7539 27.3101 44.9104 27.7378 45.1086 28.1238C45.2964 28.5098 45.5572 29.1357 45.6824 29.5321C45.9328 30.2832 46.0997 30.5127 46.4544 30.5962C46.5796 30.6275 47.0594 30.7318 47.5185 30.8361L48.353 31.0239V31.6916V32.3592L47.5185 32.547C47.0594 32.6513 46.5796 32.7557 46.4544 32.7869C46.0997 32.8704 45.9328 33.0999 45.6824 33.851C45.5572 34.2475 45.2964 34.8734 45.1086 35.2594C44.9104 35.6454 44.7539 36.0731 44.7539 36.2087C44.7539 36.3443 45.0043 36.8451 45.3173 37.3354L45.8806 38.2117L45.4112 38.702L44.9313 39.1923L44.5557 38.9524C44.3471 38.8167 43.9507 38.5664 43.669 38.3786C43.3769 38.2012 43.0431 38.0552 42.9074 38.0552C42.7718 38.0552 42.3441 38.2117 41.9477 38.4099C41.5617 38.6081 40.9253 38.8689 40.5602 38.9941C40.1847 39.1193 39.7882 39.307 39.6943 39.4114C39.5274 39.5991 38.9119 42.1029 38.9119 42.6036C38.9119 42.7288 39.0058 42.9479 39.131 43.1043C39.2979 43.3234 39.4335 43.3756 39.7882 43.3756C40.4142 43.3756 40.5706 43.1565 40.8523 41.8421C40.9879 41.237 41.1131 40.7258 41.134 40.7154C41.1444 40.7154 41.5408 40.5485 42.0103 40.3607L42.8657 40.0164L43.7942 40.6006C45.1712 41.4665 45.2442 41.4561 46.6109 40.1208C47.2055 39.5261 47.7688 38.9002 47.8419 38.7124C48.0192 38.2951 47.9462 38.0656 47.2368 36.9911L46.7152 36.1774L47.0594 35.322C47.2472 34.8421 47.4141 34.4457 47.4246 34.4248C47.435 34.4039 47.9462 34.2787 48.5617 34.1431C49.1876 33.9971 49.7718 33.8093 49.8866 33.7154C50.0535 33.5589 50.0743 33.3503 50.0743 31.6916C50.0743 30.0329 50.0535 29.8242 49.8866 29.6677C49.7718 29.5738 49.1876 29.3861 48.5617 29.24C47.9462 29.1044 47.435 28.9792 47.4246 28.9583C47.4141 28.9375 47.2472 28.5411 47.0594 28.0716L46.7152 27.2162L47.2785 26.2982C47.6019 25.7974 47.8836 25.2967 47.9149 25.1923C48.0401 24.8376 47.7062 24.3369 46.6109 23.2624C45.2442 21.9271 45.1712 21.9166 43.7942 22.7825L42.8657 23.3667L42.0103 23.0225C41.5408 22.8347 41.1444 22.6678 41.134 22.6678C41.1131 22.6573 40.9879 22.1462 40.8523 21.5411C40.5289 20.0597 40.4767 20.0076 39.3188 20.0076H38.3903L38.3695 11.4741L38.3382 2.95099L38.0356 2.32507C37.6392 1.52179 36.8464 0.728947 36.0431 0.332523L35.4172 0.0299911L25.1936 0.00912857C15.4292 -0.0117378 14.9493 -0.0117378 14.4277 0.176041ZM35.1564 1.91821C35.7197 2.17902 36.3352 2.82581 36.523 3.37871C36.742 3.98378 36.742 46.0462 36.523 46.6513C36.3248 47.2355 35.6467 47.924 35.0729 48.1431C34.6139 48.3204 33.988 48.3309 25.0372 48.3309C16.0864 48.3309 15.4604 48.3204 15.0014 48.1431C14.4277 47.924 13.7496 47.2355 13.5514 46.6513C13.4262 46.307 13.4053 42.8122 13.4053 25.015C13.4053 1.66784 13.3532 3.34742 14.0625 2.56501C14.5007 2.08512 14.918 1.84518 15.4917 1.74086C15.7213 1.69913 20.1341 1.67827 25.298 1.68871C34.5826 1.69913 34.6869 1.69913 35.1564 1.91821Z" fill="#FF3E54"/>
<path d="M21.9075 3.52485C21.7719 3.66047 21.6989 3.86911 21.6989 4.15078C21.6989 4.43245 21.7719 4.64109 21.9075 4.77671C22.1057 4.97492 22.2518 4.98535 25.0371 4.98535C27.8225 4.98535 27.9686 4.97492 28.1668 4.77671C28.3024 4.64109 28.3754 4.43245 28.3754 4.15078C28.3754 3.86911 28.3024 3.66047 28.1668 3.52485C27.9686 3.32664 27.8225 3.31621 25.0371 3.31621C22.2518 3.31621 22.1057 3.32664 21.9075 3.52485Z" fill="#FF3E54"/>
<path d="M18.5483 22.6989C16.7018 24.5454 16.6914 24.5559 16.6914 25.0149C16.6914 25.4739 16.7018 25.4843 18.5483 27.3308C20.3635 29.146 20.4053 29.1877 20.8434 29.1877C21.4276 29.1877 21.6988 28.9165 21.6988 28.3323C21.6988 27.915 21.6467 27.8524 20.2696 26.4545L18.8404 25.0149L20.2696 23.5752C21.6467 22.1773 21.6988 22.1147 21.6988 21.6975C21.6988 21.1133 21.4276 20.842 20.8434 20.842C20.4053 20.842 20.3635 20.8838 18.5483 22.6989Z" fill="#FF3E54"/>
<path d="M25.2667 21.0298C25.0476 21.2489 23.368 27.7794 23.368 28.4053C23.368 28.9061 23.6706 29.1877 24.2026 29.1877C24.4634 29.1877 24.6929 29.1147 24.8077 29C25.0268 28.7809 26.7063 22.2504 26.7063 21.6244C26.7063 21.1237 26.4038 20.842 25.8718 20.842C25.611 20.842 25.3814 20.915 25.2667 21.0298Z" fill="#FF3E54"/>
<path d="M28.5841 21.0507C28.4381 21.1967 28.3755 21.3949 28.3755 21.6975C28.3755 22.1147 28.4276 22.1773 29.8047 23.5752L31.2339 25.0149L29.8047 26.4545C28.4276 27.8524 28.3755 27.915 28.3755 28.3323C28.3755 28.9165 28.6467 29.1877 29.2309 29.1877C29.6691 29.1877 29.7108 29.146 31.526 27.3308C33.3725 25.4843 33.3829 25.4739 33.3829 25.0149C33.3829 24.5559 33.3725 24.5454 31.526 22.6989C29.7108 20.8838 29.6691 20.842 29.2309 20.842C28.9284 20.842 28.7302 20.9046 28.5841 21.0507Z" fill="#FF3E54"/>
<path d="M41.9373 6.86316C41.7808 7.01964 41.7286 7.20742 41.7286 7.58297C41.7286 8.19847 41.9581 8.42798 42.5736 8.42798C43.0744 8.42798 43.3978 8.05242 43.3978 7.47865C43.3978 6.93618 43.1161 6.65451 42.5632 6.65451C42.2815 6.65451 42.0729 6.72754 41.9373 6.86316Z" fill="#FF3E54"/>
<path d="M41.9373 10.2013C41.7808 10.3578 41.7286 10.5456 41.7286 10.9211C41.7286 11.5366 41.9581 11.7661 42.5736 11.7661C43.0744 11.7661 43.3978 11.3906 43.3978 10.8168C43.3978 10.2743 43.1161 9.99265 42.5632 9.99265C42.2815 9.99265 42.0729 10.0657 41.9373 10.2013Z" fill="#FF3E54"/>
<path d="M41.9373 13.5397C41.7808 13.6962 41.7286 13.8839 41.7286 14.2595C41.7286 14.875 41.9581 15.1045 42.5736 15.1045C43.0744 15.1045 43.3978 14.7289 43.3978 14.1552C43.3978 13.6127 43.1161 13.331 42.5632 13.331C42.2815 13.331 42.0729 13.4041 41.9373 13.5397Z" fill="#FF3E54"/>
<path d="M6.94787 35.0402C6.71836 35.2176 6.67664 35.3428 6.67664 35.7496C6.67664 36.2921 6.84355 36.532 7.32343 36.6468C7.87633 36.7824 8.33535 36.3547 8.34578 35.687C8.34578 35.3428 8.29362 35.2072 8.07454 35.0402C7.91806 34.9151 7.66769 34.8212 7.51121 34.8212C7.35473 34.8212 7.10435 34.9151 6.94787 35.0402Z" fill="#FF3E54"/>
<path d="M6.94787 38.3786C6.71836 38.556 6.67664 38.6812 6.67664 39.088C6.67664 39.6305 6.84355 39.8704 7.32343 39.9852C7.87633 40.1208 8.33535 39.6931 8.34578 39.0254C8.34578 38.6812 8.29362 38.5455 8.07454 38.3786C7.91806 38.2534 7.66769 38.1595 7.51121 38.1595C7.35473 38.1595 7.10435 38.2534 6.94787 38.3786Z" fill="#FF3E54"/>
<path d="M6.94787 41.7168C6.71836 41.8941 6.67664 42.0193 6.67664 42.4261C6.67664 42.9686 6.84355 43.2086 7.32343 43.3233C7.87633 43.4589 8.33535 43.0312 8.34578 42.3635C8.34578 42.0193 8.29362 41.8837 8.07454 41.7168C7.91806 41.5916 7.66769 41.4977 7.51121 41.4977C7.35473 41.4977 7.10435 41.5916 6.94787 41.7168Z" fill="#FF3E54"/>
</svg>
