<svg width="51" height="50" viewBox="0 0 51 50" fill="none" xmlns="http://www.w3.org/2000/svg">
<path d="M39.5141 0.194201C37.6694 0.778848 36.3389 2.07919 35.7341 3.86337C35.4921 4.59922 35.4821 4.7101 35.4821 7.23013C35.4821 10.1332 35.5224 10.4054 36.1574 11.615C36.984 13.2076 39.0101 14.5181 40.6431 14.5181H41.1269V13.6713V12.8347L40.5725 12.7742C39.7762 12.6936 38.9899 12.3004 38.3448 11.6553C37.367 10.6675 37.0949 9.74008 37.0949 7.26037C37.0949 5.59715 37.2259 4.6597 37.5485 3.96417C37.871 3.25856 38.7581 2.38159 39.4839 2.03886C40.008 1.79694 40.1895 1.7667 41.1269 1.7667C42.0644 1.7667 42.2458 1.79694 42.77 2.03886C43.4958 2.38159 44.3828 3.25856 44.7054 3.96417C45.0683 4.75042 45.159 5.61731 45.159 8.55063C45.159 11.4638 45.0985 11.8368 44.6147 11.9577C44.1711 12.0686 43.8486 11.9174 43.6873 11.5444C43.5764 11.2723 43.5462 10.5667 43.5462 8.11718C43.5462 4.72018 43.526 4.59922 42.9111 3.94401C42.4474 3.46016 41.893 3.22832 41.1471 3.22832C40.4112 3.22832 39.8972 3.41984 39.4234 3.86337C38.7581 4.49842 38.7077 4.73026 38.7077 7.26037C38.7077 9.84089 38.7581 10.0425 39.4939 10.7078C39.998 11.1715 40.502 11.3227 41.3084 11.2723L41.9333 11.242V11.5948C41.9434 12.3408 42.5885 13.2278 43.3647 13.5504C43.5764 13.6411 44.0199 13.7117 44.3526 13.7117C45.3707 13.7117 46.1771 13.2177 46.5803 12.3508C46.7516 11.9779 46.7718 11.6351 46.7718 8.30871C46.7718 4.28673 46.7617 4.16577 46.1065 2.91584C45.4614 1.68606 44.3022 0.728448 42.9111 0.254682C41.9535 -0.0578032 40.4012 -0.0880432 39.5141 0.194201ZM41.5301 5.04274C41.8426 5.20403 41.9333 5.71811 41.9333 7.28053C41.9333 8.97399 41.8225 9.4276 41.389 9.53848C40.9455 9.64936 40.6229 9.49816 40.4616 9.1252C40.2903 8.71191 40.26 5.91971 40.4213 5.47619C40.6128 4.98226 41.0765 4.80082 41.5301 5.04274Z" fill="#FF3E54"/>
<path d="M22.3275 10.6774C21.8134 10.9093 21.2187 11.5745 21.0675 12.0685C20.9767 12.381 20.8054 12.5523 20.2308 12.9656C18.2854 14.3466 16.1887 15.2639 13.9207 15.7276C12.6304 15.9796 12.1062 16.03 9.71725 16.1207C7.7617 16.1912 7.68106 16.2013 7.09641 16.4836C6.33032 16.8565 5.56423 17.6327 5.18119 18.3988L4.88886 19.0036V21.7756V24.5477L5.16103 25.1021C5.51383 25.8178 6.02792 26.4226 6.60249 26.7855C6.85449 26.9367 7.04601 27.0979 7.02585 27.1383C7.01577 27.1685 5.43319 28.4084 3.50789 29.8901L0 32.5815V41.2908V50H13.709H27.418V41.2908V32.5815L26.6115 31.9566L25.8051 31.3316L25.8253 28.5596L25.8555 25.7774L26.2789 25.6565C27.2668 25.3642 28.1941 24.5376 28.7082 23.4893C28.9602 22.9853 28.9804 22.834 28.9804 21.7756C28.9804 20.7172 28.9602 20.566 28.7082 20.062C28.1941 19.0137 27.2668 18.1871 26.2789 17.8948L25.8555 17.7738L25.8051 14.9111C25.7547 11.7661 25.7447 11.756 25.0794 11.1209C24.8979 10.9395 24.5754 10.7278 24.3738 10.6472C23.8597 10.4254 22.8315 10.4456 22.3275 10.6774ZM23.7891 12.3003C23.8899 12.3507 24.021 12.5422 24.0814 12.7136C24.1621 12.9354 24.1923 15.657 24.1923 21.7958C24.1923 31.3316 24.2024 31.1703 23.648 31.3114C23.5069 31.3417 23.2649 31.3417 23.1238 31.3114C22.5694 31.1703 22.5795 31.3316 22.5795 21.7857C22.5795 15.9392 22.6097 12.9253 22.6803 12.7338C22.8718 12.2398 23.3355 12.0584 23.7891 12.3003ZM20.9465 25.3541L20.9163 28.9325L20.4627 28.62C19.8175 28.1866 18.1442 27.3499 17.1362 26.9568C15.6141 26.3722 12.9832 25.8178 11.7232 25.8077H11.2897V21.7756V17.7436H11.7232C13.0034 17.7335 15.7754 17.1388 17.2874 16.534C18.235 16.161 19.8679 15.3344 20.4627 14.9312L20.9163 14.6187L20.9465 18.1972C20.9566 20.1628 20.9566 23.3885 20.9465 25.3541ZM9.67692 21.7857V25.8379L9.01164 25.7674C8.63867 25.727 8.17498 25.6262 7.97338 25.5456C7.55002 25.3742 7.00569 24.8702 6.79401 24.467L6.64281 24.1949H7.35849H8.0641V23.3885V22.582H7.25769H6.45128V21.7756V20.9692H7.25769H8.0641V20.1628V19.3564H7.35849H6.64281L6.79401 19.0742C6.96537 18.7617 7.5097 18.2274 7.84234 18.0561C8.12458 17.9049 8.78987 17.7738 9.30396 17.7537L9.67692 17.7436V21.7857ZM26.6821 20.183C27.1055 20.6265 27.3172 21.1507 27.3172 21.7756C27.3172 22.6324 26.8131 23.4691 26.0874 23.8521L25.8051 24.0033V21.7756V19.5479L26.0874 19.6991C26.2386 19.7798 26.5007 19.9915 26.6821 20.183ZM12.328 27.5818L12.9026 27.6423V30.757V33.8718H12.0558H11.199L11.0982 33.3375C11.0377 33.0553 10.7454 31.5937 10.443 30.1119L9.89869 27.4003L10.8261 27.4608C11.3301 27.5012 12.0054 27.5515 12.328 27.5818ZM15.6242 28.2874C17.358 28.8418 18.7692 29.5474 20.2308 30.5857C20.8054 30.999 20.9767 31.1703 21.0675 31.4828C21.2187 31.9767 21.8134 32.642 22.3275 32.8739C22.8416 33.1057 23.8496 33.1259 24.3939 32.9041C24.777 32.7529 24.8173 32.7529 25.0088 32.9243C25.1197 33.015 25.1902 33.1259 25.1802 33.1662C25.16 33.2166 21.2792 36.8051 18.1241 39.6981L17.8519 39.9501L17.2068 39.3251L16.5617 38.7103H13.709H10.8563L10.2112 39.3251L9.56604 39.9501L9.29388 39.6981C5.99768 36.6741 2.25795 33.2166 2.23779 33.1561C2.20755 33.0755 8.26571 28.3882 8.32619 28.4588C8.34635 28.4789 8.65883 29.9708 9.02172 31.765C9.3846 33.5593 9.69709 35.1318 9.72733 35.2528L9.77773 35.4846H12.1466H14.5154V31.7046C14.5154 28.7309 14.5456 27.9346 14.6464 27.9749C14.7069 27.9951 15.1504 28.1362 15.6242 28.2874ZM5.0199 38.1357C6.74361 39.7384 8.16491 41.0892 8.16491 41.1295C8.16491 41.2101 1.98579 46.9558 1.74386 47.1171C1.64306 47.1776 1.61282 45.9478 1.61282 41.1295C1.61282 36.3112 1.64306 35.0814 1.74386 35.1419C1.80434 35.1923 3.28612 36.5329 5.0199 38.1357ZM25.785 44.1737L25.7547 47.2179L22.5089 44.214C20.7147 42.5609 19.253 41.1698 19.253 41.1295C19.253 41.0892 20.7147 39.6981 22.5089 38.045L25.7547 35.0411L25.785 38.0853C25.7951 39.7586 25.7951 42.5004 25.785 44.1737ZM20.0595 44.3249L24.404 48.3368L19.0514 48.367C16.1181 48.3771 11.2998 48.3771 8.36651 48.367L3.01396 48.3368L7.35849 44.3249L11.703 40.3231H13.709H15.7149L20.0595 44.3249Z" fill="#FF3E54"/>
<path d="M30.059 15.4554L28.3252 17.1892L28.9602 17.8243L29.5852 18.4492L31.3291 16.7054L33.0629 14.9716L32.4278 14.3365L31.8028 13.7116L30.059 15.4554Z" fill="#FF3E54"/>
<path d="M35.4821 23.3886V29.0334H41.1269H46.7718V23.3886V17.7437H41.1269H35.4821V23.3886ZM45.159 23.3886V27.4206H41.1269H37.0949V23.3886V19.3565H41.1269H45.159V23.3886Z" fill="#FF3E54"/>
<path d="M38.7077 21.7756V22.582H41.1269H43.5462V21.7756V20.9692H41.1269H38.7077V21.7756Z" fill="#FF3E54"/>
<path d="M38.7077 25.0012V25.8076H41.1269H43.5462V25.0012V24.1948H41.1269H38.7077V25.0012Z" fill="#FF3E54"/>
<path d="M30.6436 21.7756V22.582H32.2564H33.8693V21.7756V20.9692H32.2564H30.6436V21.7756Z" fill="#FF3E54"/>
<path d="M28.8998 25.7876L28.3252 26.3622L30.0691 28.1061L31.8028 29.8398L32.4379 29.2048L33.0629 28.5798L31.3694 26.8864C30.442 25.959 29.6356 25.203 29.5852 25.203C29.5247 25.203 29.2223 25.4651 28.8998 25.7876Z" fill="#FF3E54"/>
<path d="M38.9597 32.4706C35.8349 33.2367 33.214 35.8777 32.458 39.0126C32.1758 40.192 32.1758 42.0669 32.458 43.2463C33.2544 46.5525 35.976 49.1835 39.3327 49.8588C40.3407 50.0604 42.5684 49.9999 43.4958 49.7479C44.4836 49.4859 46.046 48.6492 46.8625 47.9638C48.2637 46.7844 49.3725 44.9901 49.7958 43.2463C50.0781 42.0669 50.0781 40.192 49.7958 39.0126C49.0398 35.8474 46.4089 33.2165 43.2438 32.4605C42.0845 32.1884 40.1088 32.1884 38.9597 32.4706ZM42.5886 34.0935C44.0098 34.3959 45.3303 35.1519 46.3384 36.2305C47.1044 37.0369 47.5883 37.8332 47.9512 38.8614C48.2133 39.6073 48.2334 39.7787 48.2334 41.1294C48.2334 42.5104 48.2133 42.6414 47.9209 43.4579C47.5379 44.5466 46.8625 45.5647 46.0158 46.3509C42.1753 49.9495 36.0768 48.3871 34.2926 43.3571C34.0406 42.6616 34.0204 42.46 34.0204 41.1294C34.0204 39.7787 34.0406 39.6073 34.3027 38.8614C35.5325 35.3938 39.0907 33.3375 42.5886 34.0935Z" fill="#FF3E54"/>
<path d="M38.2541 37.2689C37.8105 37.5007 37.5081 37.8031 37.2864 38.2265C37.115 38.5692 37.0948 38.8414 37.0948 41.1296C37.0948 43.4178 37.115 43.6899 37.2864 44.0326C37.6795 44.7887 38.3145 45.1616 39.2117 45.1616C39.7862 45.1616 39.9475 45.1011 42.0644 44.0427C43.2941 43.4278 44.413 42.823 44.534 42.7021C44.9473 42.3291 45.159 41.7949 45.159 41.1296C45.159 40.4643 44.9473 39.93 44.534 39.5571C44.413 39.4361 43.2941 38.8313 42.0644 38.2164C39.9072 37.1479 39.7963 37.0975 39.1915 37.0975C38.8186 37.1076 38.4355 37.1681 38.2541 37.2689ZM41.3789 39.799C42.4272 40.3332 43.3344 40.8574 43.3848 40.9481C43.4655 41.0792 43.4655 41.18 43.3848 41.3009C43.2639 41.5227 39.5443 43.4379 39.2419 43.448C38.7782 43.4581 38.7077 43.1456 38.7077 41.1598C38.7077 39.0934 38.7682 38.8111 39.1814 38.8111C39.3427 38.8212 40.3205 39.2647 41.3789 39.799Z" fill="#FF3E54"/>
</svg>
