<svg width="36" height="40" viewBox="0 0 36 40" fill="none" xmlns="http://www.w3.org/2000/svg">
<path d="M16.1211 0.10762C10.9714 0.990646 7.13452 4.89783 6.3609 10.0475C6.3062 10.3835 6.27494 11.9386 6.27494 13.9156C6.27494 17.0648 6.28276 17.2367 6.43904 17.5727C6.68129 18.1119 6.95479 18.4167 7.41584 18.6746L7.83782 18.9168V19.6279C7.83782 20.2218 7.86907 20.4172 8.02536 20.7454C8.43171 21.6206 9.20533 22.1051 10.1978 22.1051H10.7916L11.112 22.6912C11.2918 23.0194 11.6669 23.5586 11.9404 23.9024L12.4483 24.5275L11.7919 25.8404L11.1355 27.1454L9.04123 27.8408C5.89204 28.888 4.75114 29.5366 3.22734 31.1463C1.29719 33.1859 0.171916 35.8037 0.0468862 38.5153L0 39.5702L0.218802 39.7812L0.437605 40H17.9965H35.5554L35.7742 39.7812L35.993 39.5702L35.9461 38.5153C35.8211 35.8037 34.6958 33.1859 32.7657 31.1463C31.2419 29.5366 30.101 28.888 26.9518 27.8408L24.8575 27.1454L24.2011 25.8325L23.5447 24.5275L23.9198 24.0665C24.8966 22.8943 25.4905 21.6128 25.8031 20.0108L26.0062 18.9793H26.983C27.8426 18.9793 28.0067 18.9559 28.3584 18.7918C28.8663 18.5574 29.2961 18.1276 29.5305 17.6196L29.7181 17.2211V13.9156C29.7181 11.9464 29.6868 10.3835 29.6321 10.0475C29.257 7.53128 28.1708 5.33544 26.4048 3.5225C24.5918 1.65487 22.271 0.467083 19.661 0.0763626C18.9186 -0.0408516 16.8556 -0.0174065 16.1211 0.10762ZM19.6844 1.74864C23.6541 2.44412 26.8111 5.39014 27.8035 9.32858C27.8973 9.71149 28.0067 10.2351 28.038 10.4773L28.0849 10.9305H27.3503H26.6158L26.5689 10.2429C26.4907 9.06289 26.0062 7.69538 25.2951 6.617C24.2636 5.07756 22.7164 3.94448 20.8487 3.37403C20.1533 3.16304 20.1142 3.15523 17.9965 3.15523C15.8788 3.15523 15.8397 3.16304 15.1443 3.37403C13.2766 3.94448 11.7294 5.07756 10.6979 6.617C9.98677 7.69538 9.50228 9.06289 9.42414 10.2429L9.37725 10.9305H8.65051C8.11132 10.9305 7.91596 10.9071 7.91596 10.8289C7.93159 10.0788 8.40045 8.39867 8.86931 7.39843C9.38506 6.30442 9.9477 5.52298 10.8776 4.59307C12.4796 2.98331 14.3316 2.0534 16.6681 1.68613C17.1994 1.60017 19.0514 1.63924 19.6844 1.74864ZM20.0595 4.8822C20.755 5.03849 22.0365 5.65583 22.6226 6.11687C23.6072 6.89831 24.4746 8.26583 24.795 9.5552C24.9826 10.3132 25.0138 11.6338 24.8419 11.6338C24.7872 11.6338 24.3261 11.5635 23.826 11.4775C21.4426 11.0634 19.2077 9.97718 17.4495 8.38304L16.7853 7.78134L15.9257 7.82822C14.2612 7.91418 12.6671 8.61748 11.4871 9.80526C10.9714 10.3132 10.9792 10.3288 11.2918 9.25044C11.9872 6.82798 14.1753 5.02286 16.7384 4.74936C17.5667 4.6634 19.3953 4.73373 20.0595 4.8822ZM16.3242 9.6099C16.6055 9.93029 17.8168 10.8289 18.5748 11.2744C20.1064 12.1886 21.7865 12.7982 23.615 13.1107C24.1464 13.2045 24.67 13.2748 24.7716 13.2748C24.9513 13.2748 24.9591 13.2983 24.92 13.564C24.8966 13.7281 24.8575 14.2282 24.8341 14.6814C24.7403 16.2521 24.3574 19.0497 24.0839 20.1906C23.8807 20.9954 23.2634 22.2379 22.7398 22.8865C21.552 24.3478 19.8954 25.1527 18.0746 25.1683C16.7696 25.1761 15.8085 24.9104 14.7535 24.2306C14.144 23.8399 13.3157 23.0428 12.925 22.4724L12.6749 22.1051H13.4173H14.1518L14.3941 22.5271C14.652 22.9881 14.9567 23.2616 15.4959 23.5039C15.8085 23.6445 16.0117 23.668 17.2151 23.668C18.4888 23.668 18.606 23.6523 18.9811 23.4804C19.8563 23.0741 20.3408 22.3004 20.3408 21.3236C20.3408 20.3468 19.8563 19.5732 18.9811 19.1669C18.606 18.995 18.4888 18.9793 17.2151 18.9793C16.0117 18.9793 15.8085 19.0028 15.4959 19.1434C14.9567 19.3857 14.652 19.6592 14.3941 20.1202L14.1518 20.5422H13.0656H11.9872L11.9013 20.2374C11.6669 19.3622 11.2527 16.0489 11.0808 13.6656L11.0339 12.9935L11.6512 12.1808C12.7921 10.6648 13.7377 9.94592 15.0349 9.60209C15.8163 9.39891 16.1367 9.40673 16.3242 9.6099ZM9.43195 13.5249C9.48665 14.5486 9.67419 16.7757 9.75234 17.2133L9.79141 17.4321L9.10375 17.4008C7.86907 17.3383 7.8847 17.3696 7.85345 14.658L7.83 12.4934H8.60363H9.37725L9.43195 13.5249ZM28.1396 14.658C28.1083 17.3696 28.1239 17.3383 26.8893 17.4008L26.2016 17.4321L26.2407 17.2133C26.311 16.7757 26.5064 14.5564 26.5611 13.5249L26.6079 12.4934H27.3894H28.163L28.1396 14.658ZM10.0884 19.5029C10.1352 19.7998 10.1978 20.1437 10.229 20.2765C10.2759 20.511 10.2603 20.5188 10.0727 20.4875C9.64294 20.4016 9.40069 19.9718 9.40069 19.2841C9.40069 18.9793 9.40069 18.9793 9.70545 18.9793H10.0024L10.0884 19.5029ZM18.0668 20.5891C18.903 20.761 18.903 21.8863 18.0668 22.0582C17.7464 22.1207 16.6837 22.1207 16.3633 22.0582C15.7694 21.9332 15.5193 21.2455 15.9335 20.8313C16.0429 20.7219 16.207 20.6125 16.3008 20.5969C16.5821 20.5422 17.8011 20.5422 18.0668 20.5891ZM23.3025 27.8955C23.3103 28.0753 22.6148 29.8101 22.1069 30.8963L21.6614 31.8262L20.3799 30.5446L19.0905 29.2631L19.3484 28.9817C19.489 28.8333 20.2158 28.0596 20.966 27.2782L22.3257 25.8404L22.8102 26.8093C23.0837 27.3329 23.3025 27.8252 23.3025 27.8955ZM15.1599 27.7471L16.7384 29.3334L15.535 30.5837L14.3394 31.834L13.894 30.8963C13.4173 29.896 12.6827 28.0831 12.6827 27.9112C12.6827 27.7939 13.4798 26.1686 13.5423 26.1686C13.5658 26.1686 14.2925 26.8797 15.1599 27.7471ZM18.0903 26.8172H19.0827L18.5279 27.411C18.2231 27.7392 17.9574 28.0128 17.9262 28.0284C17.9027 28.0362 17.5745 27.7392 17.2151 27.372C16.5665 26.7156 16.5587 26.6999 16.8243 26.7625C16.9728 26.7937 17.5433 26.8172 18.0903 26.8172ZM11.6278 29.8569C12.4639 31.959 13.597 34.0142 15.4256 36.7336C15.8397 37.3509 16.2539 37.9839 16.3477 38.1402L16.5274 38.4371H9.09593C2.86006 38.4371 1.66446 38.4215 1.66446 38.3277C1.66446 38.0386 1.92234 36.8117 2.10207 36.2335C2.87569 33.7954 4.55578 31.7011 6.70473 30.4977C7.19704 30.2242 10.8229 28.9192 11.1277 28.9114C11.2136 28.9036 11.3621 29.1927 11.6278 29.8569ZM26.7955 29.5287C27.8504 29.8882 28.921 30.3024 29.2492 30.4821C31.406 31.6621 33.1095 33.7798 33.8909 36.2335C34.0707 36.8117 34.3285 38.0386 34.3285 38.3277C34.3285 38.4215 33.1329 38.4371 26.8971 38.4371H19.4656L19.6453 38.1402C19.7391 37.9839 20.1533 37.3509 20.5674 36.7336C22.3726 34.0533 23.5525 31.9199 24.3652 29.8569C24.5762 29.3334 24.7872 28.9036 24.8341 28.9036C24.881 28.9036 25.764 29.1849 26.7955 29.5287ZM19.364 31.9512L20.7706 33.3578L20.6299 33.6157C20.5518 33.7563 20.208 34.2799 19.872 34.7722C19.5359 35.2645 18.9811 36.0928 18.6529 36.6164C18.3247 37.1478 18.0278 37.5775 18.0043 37.5775C17.9809 37.5775 17.6839 37.1478 17.3479 36.6164C17.0119 36.0928 16.4024 35.1707 15.996 34.5768C15.5897 33.9829 15.2615 33.4437 15.2615 33.389C15.2615 33.2953 17.8168 30.5446 17.9105 30.5446C17.934 30.5446 18.5904 31.1776 19.364 31.9512Z" fill="#FF3E54"/>
<path d="M26.014 31.1386C25.8499 31.3027 25.8108 31.4199 25.8108 31.7169C25.8108 32.0138 25.8499 32.131 26.014 32.2951C26.1781 32.4592 26.2953 32.4983 26.5922 32.4983C27.108 32.4983 27.3737 32.2326 27.3737 31.7169C27.3737 31.4199 27.3346 31.3027 27.1705 31.1386C26.8735 30.8495 26.3109 30.8495 26.014 31.1386Z" fill="#FF3E54"/>
<path d="M28.7725 32.6466C28.5928 32.8263 28.5459 32.9435 28.5459 33.2014C28.5459 33.514 28.5928 33.5765 29.2023 34.2094C29.9837 35.0065 30.0853 35.1237 30.4604 35.7645C30.7808 36.3115 30.9058 36.4053 31.3591 36.4053C31.7732 36.4053 32.1405 36.0614 32.1405 35.6629C32.1405 35.0299 30.7105 33.0998 29.8353 32.5606C29.468 32.3418 29.046 32.3731 28.7725 32.6466Z" fill="#FF3E54"/>
</svg>
