<svg width="50" height="50" viewBox="0 0 50 50" fill="none" xmlns="http://www.w3.org/2000/svg">
<path d="M1.02539 0.166016C0.595703 0.390625 0.390625 0.595703 0.185547 0.996094C0.00976562 1.33789 0 1.65039 0 6.5918C0 11.5332 0.00976562 11.8457 0.185547 12.1875C0.400391 12.5977 0.605469 12.8027 1.04492 13.0273C1.30859 13.1543 1.72852 13.1836 3.61328 13.1836H5.85938V18.5449V23.916L6.11328 24.1113C6.36719 24.3164 6.46484 24.3164 11.2891 24.3164H16.2109V25.8301V27.3438H15.7227C15.3516 27.3438 15.2344 27.3047 15.2344 27.1973C15.2344 26.9336 14.3359 26.123 13.9062 25.9961C13.0176 25.7324 12.2559 25.918 11.6211 26.5625C10.7031 27.4707 10.7031 28.7793 11.6211 29.6875C12.2559 30.332 13.0176 30.5176 13.9062 30.2539C14.3359 30.127 15.2344 29.3164 15.2344 29.0527C15.2344 28.9453 15.3418 28.9062 15.7129 28.9062H16.1914L16.2305 30.5469C16.2598 32.1875 16.2598 32.1973 16.5527 32.6758C16.7383 32.9688 17.0312 33.2617 17.3242 33.4473L17.8027 33.7402L19.7949 33.7695L21.7773 33.7988V38.0957V42.3828H17.4805H13.1836V40.2832C13.1836 38.4082 13.1641 38.1348 12.998 37.8125C12.7832 37.4023 12.5781 37.1973 12.1387 36.9727C11.8652 36.8359 11.2207 36.8164 6.5918 36.8164C1.96289 36.8164 1.31836 36.8359 1.04492 36.9727C0.605469 37.1973 0.400391 37.4023 0.185547 37.8125C0.00976562 38.1543 0 38.4668 0 43.4082C0 48.3496 0.00976562 48.6621 0.185547 49.0039C0.400391 49.4141 0.605469 49.6191 1.04492 49.8438C1.31836 49.9805 1.96289 50 6.5918 50C11.2207 50 11.8652 49.9805 12.1387 49.8438C12.5781 49.6191 12.7832 49.4141 12.998 49.0039C13.1641 48.6816 13.1836 48.4082 13.1836 46.2891V43.9453H18.0176H22.8613L23.0957 43.7012L23.3398 43.4668V38.623V33.7891H25.293H27.2461V35.4004C27.2461 36.7871 27.2266 37.0117 27.0996 37.0117C26.8359 37.0117 26.0254 37.9102 25.8984 38.3398C25.6348 39.2285 25.8203 39.9902 26.4648 40.625C27.373 41.543 28.6816 41.543 29.5898 40.625C30.2344 39.9902 30.4199 39.2285 30.1562 38.3398C30.0293 37.9102 29.2188 37.0117 28.9551 37.0117C28.8281 37.0117 28.8086 36.7871 28.8086 35.4102V33.8086L30.498 33.7695C32.1191 33.7402 32.1973 33.7305 32.627 33.4766C33.1152 33.1934 33.5449 32.6465 33.6914 32.1191C33.75 31.9336 33.7891 30.5859 33.7891 29.1309V26.4648H38.2324H42.6758V31.6406V36.8164H40.4297C38.4082 36.8164 38.1348 36.8359 37.8125 37.002C36.9727 37.4316 36.8164 37.832 36.8164 39.5898C36.8164 40.9961 36.8164 41.0059 37.0703 41.2012C37.4023 41.4551 37.6953 41.4648 38.0176 41.2109C38.252 41.0254 38.2617 40.9668 38.3008 39.7949C38.3203 38.9648 38.3691 38.5449 38.457 38.457C38.6426 38.2715 48.1738 38.2715 48.3594 38.457C48.5449 38.6426 48.5449 48.1738 48.3594 48.3594C48.1738 48.5449 38.6426 48.5449 38.457 48.3594C38.3594 48.2617 38.3203 47.5977 38.2812 45.7422C38.2324 43.418 38.2227 43.2324 38.0469 43.1055C37.7637 42.9004 37.2461 42.9297 37.0117 43.1641C36.8262 43.3496 36.8164 43.4863 36.8164 45.9961C36.8164 48.3984 36.8359 48.6719 37.002 49.0039C37.2168 49.4141 37.4219 49.6191 37.8613 49.8438C38.1348 49.9805 38.7793 50 43.4082 50C48.3496 50 48.6621 49.9902 49.0039 49.8145C49.4141 49.5996 49.6191 49.3945 49.8438 48.9551C49.9805 48.6816 50 48.0371 50 43.4082C50 38.4668 49.9902 38.1543 49.8145 37.8125C49.5996 37.4023 49.3945 37.1973 48.9551 36.9727C48.6914 36.8457 48.2812 36.8164 46.4453 36.8164H44.248L44.2188 31.1035L44.1895 25.4004L43.9648 25.1758L43.7402 24.9512L38.7695 24.9219L33.7891 24.8926V23.7305V22.5586H35.4785L37.1582 22.5684L37.4121 22.9883C37.5781 23.252 37.8613 23.5254 38.1445 23.6914C38.5449 23.9355 38.7305 23.9746 39.3066 23.9746C40.1367 23.9746 40.7227 23.6816 41.1719 23.0371C41.4355 22.6562 41.4551 22.5586 41.4551 21.7773C41.4551 20.9961 41.4355 20.8984 41.1719 20.5176C40.7227 19.873 40.1367 19.5801 39.3066 19.5801C38.7305 19.5801 38.5449 19.6191 38.1445 19.8633C37.8613 20.0293 37.5781 20.3027 37.4121 20.5664L37.1582 20.9863L35.4785 20.9961H33.8086L33.7695 19.4043C33.7402 17.8223 33.7402 17.8027 33.4473 17.3242C33.2617 17.0312 32.9688 16.7383 32.6758 16.5527C32.1973 16.2598 32.1875 16.2598 30.498 16.2305L28.8086 16.1914V11.7578V7.32422H32.8125H36.8164V9.57031C36.8164 11.4551 36.8457 11.875 36.9727 12.1387C37.1973 12.5781 37.4023 12.7832 37.8125 12.998C38.1543 13.1738 38.4668 13.1836 43.4082 13.1836C48.3496 13.1836 48.6621 13.1738 49.0039 12.998C49.4141 12.7832 49.6191 12.5781 49.8438 12.1387C49.9805 11.8652 50 11.2207 50 6.5918C50 1.96289 49.9805 1.31836 49.8438 1.04492C49.6191 0.605469 49.4141 0.400391 49.0039 0.185547C48.6621 0.00976562 48.3496 0 43.4082 0C38.4668 0 38.1543 0.00976562 37.8125 0.185547C37.4023 0.400391 37.1973 0.605469 36.9727 1.04492C36.8457 1.30859 36.8164 1.72852 36.8164 3.61328V5.85938H32.2266H27.6465L27.4414 6.07422C27.2461 6.2793 27.2461 6.38672 27.2461 11.25V16.2109H25.293H23.3398V14.7949C23.3398 13.584 23.3594 13.3789 23.4863 13.3789C23.75 13.3789 24.5605 12.4805 24.6875 12.0508C24.9512 11.1621 24.7656 10.4004 24.1211 9.76562C23.2129 8.84766 21.9043 8.84766 20.9961 9.76562C20.3516 10.4004 20.166 11.1621 20.4297 12.0508C20.5566 12.4805 21.3672 13.3789 21.6309 13.3789C21.7578 13.3789 21.7773 13.584 21.7773 14.7852V16.2012L19.7949 16.2305L17.8027 16.2598L17.3242 16.5527C17.0312 16.7383 16.7383 17.0312 16.5527 17.3242L16.2598 17.8027L16.2305 20.2832L16.2012 22.7539H11.7578H7.32422V17.9688V13.1836H9.57031C11.5918 13.1836 11.8652 13.1641 12.1875 12.998C13.0273 12.5684 13.1836 12.168 13.1836 10.4199C13.1836 9.08203 13.1738 9.01367 12.959 8.80859C12.6953 8.56445 12.2461 8.53516 11.9629 8.75C11.7871 8.87695 11.7578 9.04297 11.7188 10.1562C11.6895 11.0059 11.6309 11.4551 11.543 11.543C11.3574 11.7285 1.82617 11.7285 1.64062 11.543C1.45508 11.3574 1.45508 1.82617 1.64062 1.64062C1.82617 1.45508 11.3574 1.45508 11.543 1.64062C11.6406 1.73828 11.6797 2.36328 11.6992 4.19922L11.7285 6.63086L11.9824 6.83594C12.3047 7.08984 12.5977 7.08008 12.9297 6.82617L13.1836 6.63086V3.99414C13.1836 1.75781 13.1641 1.30859 13.0273 1.04492C12.8027 0.605469 12.5977 0.400391 12.1875 0.185547C11.8457 0.00976562 11.5332 0 6.57227 0C1.97266 0.00976562 1.2793 0.0292969 1.02539 0.166016ZM48.3594 1.64062C48.5449 1.82617 48.5449 11.3574 48.3594 11.543C48.1738 11.7285 38.6426 11.7285 38.457 11.543C38.3594 11.4453 38.3203 10.4395 38.3008 6.85547C38.291 4.3457 38.3008 2.14844 38.3301 1.97266C38.3691 1.76758 38.4668 1.62109 38.6035 1.5625C38.7207 1.51367 40.918 1.48438 43.5254 1.49414C47.2363 1.51367 48.2617 1.54297 48.3594 1.64062ZM22.998 10.8887C23.1348 11.0156 23.2422 11.2109 23.2422 11.3281C23.2422 11.5918 22.8223 12.0117 22.5586 12.0117C22.2949 12.0117 21.875 11.5918 21.875 11.3281C21.875 11.0645 22.2949 10.6445 22.5586 10.6445C22.6758 10.6445 22.8711 10.752 22.998 10.8887ZM31.7676 17.8809C31.9043 17.9395 32.0605 18.0957 32.1191 18.2324C32.2754 18.5645 32.2754 31.4355 32.1191 31.7676C32.0605 31.9043 31.9043 32.0605 31.7676 32.1191C31.4355 32.2754 18.5645 32.2754 18.2324 32.1191C18.0957 32.0605 17.9395 31.9043 17.8809 31.7676C17.7246 31.4355 17.7246 18.5645 17.8809 18.2227C17.9395 18.0957 18.0859 17.9395 18.2031 17.8906C18.5059 17.7441 31.4551 17.7344 31.7676 17.8809ZM39.7266 21.2891C40.1465 21.6895 39.8535 22.4609 39.2871 22.4609C38.9746 22.4609 38.6719 22.1289 38.6719 21.7773C38.6719 21.1816 39.3066 20.8984 39.7266 21.2891ZM13.623 27.6855C13.7598 27.8125 13.8672 28.0078 13.8672 28.125C13.8672 28.2324 13.7598 28.4375 13.623 28.5645C13.4961 28.7012 13.3008 28.8086 13.1836 28.8086C13.0762 28.8086 12.8711 28.7012 12.7441 28.5645C12.6074 28.4375 12.5 28.2324 12.5 28.125C12.5 28.0078 12.6074 27.8125 12.7441 27.6855C12.8711 27.5488 13.0762 27.4414 13.1836 27.4414C13.3008 27.4414 13.4961 27.5488 13.623 27.6855ZM11.543 38.457C11.7285 38.6426 11.7285 48.1738 11.543 48.3594C11.3574 48.5449 1.82617 48.5449 1.64062 48.3594C1.54297 48.2617 1.50391 47.2559 1.48438 43.6719C1.46484 41.1621 1.48438 38.9648 1.51367 38.7891C1.55273 38.584 1.65039 38.4375 1.78711 38.3789C1.9043 38.3301 4.10156 38.3008 6.70898 38.3105C10.4199 38.3301 11.4453 38.3594 11.543 38.457ZM28.4668 38.623C28.6035 38.75 28.7109 38.9453 28.7109 39.0625C28.7109 39.3262 28.291 39.7461 28.0273 39.7461C27.7637 39.7461 27.3438 39.3262 27.3438 39.0625C27.3438 38.7988 27.7637 38.3789 28.0273 38.3789C28.1445 38.3789 28.3398 38.4863 28.4668 38.623Z" fill="#FF3E54"/>
<path d="M40.0488 3.23242L39.7461 3.53516V6.5918V9.64844L40.0488 9.95117L40.3516 10.2539H43.4082H46.4648L46.7676 9.95117L47.0703 9.64844V6.5918V3.53516L46.7676 3.23242L46.4648 2.92969H43.4082H40.3516L40.0488 3.23242ZM45.6055 6.5918V8.78906H43.4082H41.2109V6.5918V4.39453H43.4082H45.6055V6.5918Z" fill="#FF3E54"/>
<path d="M19.707 19.2969C19.1309 19.5996 19.1406 19.5508 19.1406 25.0195C19.1406 29.8047 19.1504 30.0391 19.3262 30.3125C19.6973 30.8691 19.5606 30.8496 24.9805 30.8594C29.4531 30.8594 30.0293 30.8398 30.2734 30.7031C30.8789 30.3418 30.8594 30.4883 30.8594 25C30.8594 19.5215 30.8692 19.5898 30.2734 19.2871C30.0684 19.1797 29.6875 19.1406 28.9063 19.1406C27.8906 19.1406 27.8125 19.1504 27.5879 19.3848C27.4317 19.5312 27.3438 19.7363 27.3438 19.9219C27.3438 20.1074 27.4317 20.3125 27.5879 20.459C27.793 20.6738 27.9102 20.7031 28.5645 20.7031H29.2969V25V29.2969H25H20.7031V25V20.7031H22.9981H25.3027L25.5371 20.459C25.6934 20.3125 25.7813 20.1074 25.7813 19.9219C25.7813 19.7363 25.6934 19.5312 25.5371 19.3848L25.3027 19.1406H22.6367C20.4688 19.1504 19.9219 19.1797 19.707 19.2969Z" fill="#FF3E54"/>
<path d="M3.23242 40.0488L2.92969 40.3516V43.4082V46.4648L3.23242 46.7676L3.53516 47.0703H6.5918H9.64844L9.95117 46.7676L10.2539 46.4648V43.4082V40.3516L9.95117 40.0488L9.64844 39.7461H6.5918H3.53516L3.23242 40.0488ZM8.78906 43.4082V45.6055H6.5918H4.39453V43.4082V41.2109H6.5918H8.78906V43.4082Z" fill="#FF3E54"/>
<path d="M3.23242 3.23242L2.92969 3.53516V6.5918V9.64844L3.23242 9.95117L3.53516 10.2539H6.5918H9.64844L9.95117 9.95117L10.2539 9.64844V6.5918V3.53516L9.95117 3.23242L9.64844 2.92969H6.5918H3.53516L3.23242 3.23242ZM8.78906 6.5918V8.78906H6.5918H4.39453V6.5918V4.39453H6.5918H8.78906V6.5918Z" fill="#FF3E54"/>
<path d="M40.0488 40.0488L39.7461 40.3516V43.4082V46.4648L40.0488 46.7676L40.3516 47.0703H43.4082H46.4648L46.7676 46.7676L47.0703 46.4648V43.4082V40.3516L46.7676 40.0488L46.4648 39.7461H43.4082H40.3516L40.0488 40.0488ZM45.6055 43.4082V45.6055H43.4082H41.2109V43.4082V41.2109H43.4082H45.6055V43.4082Z" fill="#FF3E54"/>
</svg>
