<svg width="50" height="50" viewBox="0 0 50 50" fill="none" xmlns="http://www.w3.org/2000/svg">
<path d="M7.73578 0.104755C7.07241 0.298664 6.43967 0.829353 6.11309 1.4621L5.80692 2.07444L5.7763 4.40132L5.73548 6.7282H4.23525C2.06146 6.7282 1.37768 7.02416 0.785757 8.23863L0.5 8.82035V26.1189V43.4174L0.734729 43.897C0.867402 44.1522 1.17357 44.5502 1.41851 44.7849C2.23495 45.5401 1.82673 45.5095 11.8997 45.5095H20.8602V47.5507C20.8602 49.4591 20.8704 49.602 21.0643 49.7959C21.2684 50 21.4011 50 27.8 50C34.1989 50 34.3316 50 34.5357 49.7959C34.7296 49.602 34.7398 49.4591 34.7398 47.5507V45.5095H38.3934C42.588 45.5095 42.8125 45.4789 43.5881 44.7645C44.4045 44.0195 44.476 43.7644 44.5168 41.1007L44.5576 38.7942L46.2109 38.7534C47.6703 38.7228 47.9051 38.6922 48.2725 38.4983C48.844 38.1921 49.3237 37.7022 49.5788 37.1409L49.7931 36.6817V19.373V2.07444L49.4869 1.4621C49.1502 0.808945 48.5174 0.288456 47.8234 0.0945511C47.3438 -0.0381241 8.19503 -0.027916 7.73578 0.104755ZM47.5989 1.57436C47.752 1.65601 47.9867 1.84991 48.099 1.99279C48.3031 2.25814 48.3133 2.38061 48.3133 5.36065V8.46315H35.7706H23.2279L21.6154 6.83025C20.4112 5.60558 19.9111 5.16674 19.6457 5.0953C19.1559 4.96263 12.9611 4.96263 12.4712 5.0953C12.2671 5.15654 11.9813 5.34024 11.8384 5.51373C11.5833 5.80969 11.5731 5.88113 11.5731 7.14663V8.46315H9.36868H7.17447L7.20509 5.42188C7.2357 2.05403 7.24591 2.04382 7.92969 1.62539C8.24606 1.42128 8.60326 1.42128 27.7796 1.42128C44.8128 1.42128 47.3438 1.44169 47.5989 1.57436ZM20.7275 8.01411C21.5542 8.89179 22.3604 9.66742 22.5135 9.74906C22.7482 9.87153 24.7996 9.89194 35.5563 9.89194H48.3133V23.2001V36.498L48.099 36.7735C47.6295 37.3655 47.8745 37.345 40.7918 37.3348H34.2806L34.8215 37.0899C35.2807 36.8756 35.393 36.7735 35.5767 36.3551C35.7502 35.9673 35.7706 35.804 35.689 35.508C35.6379 35.3039 34.0152 32.3035 32.0864 28.8336C28.8002 22.9143 28.5654 22.5163 28.2184 22.3734C27.9021 22.2407 27.8 22.2305 27.4428 22.353C27.0448 22.4959 26.9938 22.5673 25.269 25.6596C20.1764 34.7834 19.8907 35.3243 19.9009 35.8142C19.9111 36.4265 20.1764 36.8143 20.8092 37.1001L21.3195 37.3348H14.7879C8.491 37.345 8.24606 37.3348 7.92969 37.1409C7.74599 37.0389 7.52146 36.8246 7.41941 36.6613C7.24591 36.3959 7.2357 35.7121 7.20509 23.1388L7.18468 9.89194H9.67485H12.165L12.4814 9.62659C12.8896 9.28981 13.0019 8.84076 13.0019 7.51403V6.42203H16.1044H19.2069L20.7275 8.01411ZM5.7763 22.4244L5.80692 36.6919L6.11309 37.3042C6.44987 37.9574 7.08262 38.4779 7.7766 38.6718C8.02154 38.733 10.8179 38.7738 15.5227 38.7738C22.8911 38.7738 22.8911 38.7738 23.0034 38.9881C23.0748 39.1004 23.1463 39.4474 23.1769 39.7536L23.2381 40.3047H22.738C22.0236 40.3047 21.5542 40.468 21.2072 40.8252C20.9112 41.1313 20.9112 41.1313 20.8806 42.6111L20.85 44.0807H11.9711C2.33701 44.0807 2.65338 44.1012 2.20434 43.5194L1.97981 43.2337V26.1495C1.97981 10.2491 1.99002 9.03467 2.15331 8.75912C2.44927 8.25904 2.79626 8.15699 4.34752 8.15699H5.75589L5.7763 22.4244ZM27.0856 27.017V28.5172L26.708 28.7213C25.9732 29.1193 25.514 30.2317 25.7487 31.089C26.0344 32.1504 26.7897 32.6811 27.9123 32.63C28.4532 32.5994 28.6777 32.5382 28.9941 32.3137C30.229 31.4564 30.1983 29.548 28.9328 28.7723L28.5246 28.5172L28.5144 26.9965C28.5144 26.1597 28.5348 25.4963 28.5552 25.5167C28.6165 25.578 34.2296 35.7121 34.2296 35.753C34.2296 35.7836 34.0561 35.855 33.8519 35.9265C32.3415 36.4163 31.0964 38.0186 30.9842 39.6005L30.9331 40.3047H27.8H24.6669L24.6159 39.5903C24.5036 38.1207 23.4626 36.6715 22.0338 35.9979L21.3603 35.6917L21.5542 35.3652C21.6562 35.1917 22.9319 32.9056 24.3811 30.2725C25.8303 27.6497 27.0346 25.5065 27.055 25.5065C27.0754 25.5065 27.0856 26.1801 27.0856 27.017ZM28.3001 30.1603C28.4226 30.3134 28.5144 30.4869 28.5144 30.5583C28.5144 30.8237 28.096 31.2217 27.8102 31.2217C27.2081 31.2217 26.9223 30.64 27.2897 30.1705C27.5857 29.8031 28.0143 29.8031 28.3001 30.1603ZM43.088 40.9578C43.037 44.2542 43.3125 44.0807 38.3424 44.0807H34.75L34.7194 42.6111C34.6888 41.2028 34.6786 41.1211 34.4337 40.8558C34.0765 40.4782 33.6172 40.3047 32.9436 40.3047H32.3619L32.4232 39.7536C32.5354 38.6718 31.9639 38.7738 37.9138 38.7738H43.1288L43.088 40.9578ZM33.311 45.1523V48.5712H27.8H22.289V45.1523V41.7335H27.8H33.311V45.1523Z" fill="#FF3E54"/>
<path d="M35.097 3.21754C34.3316 3.61555 33.9846 4.2483 34.0458 5.11578C34.1173 6.14655 34.8827 6.83032 35.9441 6.83032C36.9034 6.83032 37.5464 6.34045 37.8015 5.42195C38.0158 4.58509 37.5974 3.62576 36.8524 3.26856C36.3217 3.01342 35.5358 2.99301 35.097 3.21754ZM36.3319 4.73817C36.6074 5.1566 35.9339 5.63627 35.5767 5.27907C35.4032 5.10557 35.4236 4.83002 35.6175 4.63612C35.8318 4.4218 36.1584 4.47283 36.3319 4.73817Z" fill="#FF3E54"/>
<path d="M39.4242 3.33992C38.2098 4.11555 38.2812 5.98317 39.5365 6.62613C39.9753 6.85065 40.7816 6.89147 41.2408 6.71798C42.1899 6.36078 42.6492 5.10549 42.2002 4.11555C41.894 3.45218 41.3735 3.1154 40.5673 3.07457C39.9651 3.04396 39.8427 3.07457 39.4242 3.33992ZM40.802 4.64624C41.1388 4.97282 40.9347 5.40145 40.4346 5.40145C40.0468 5.40145 39.8733 5.06467 40.0978 4.72788C40.2815 4.44213 40.5673 4.41151 40.802 4.64624Z" fill="#FF3E54"/>
<path d="M44.18 3.19712C43.5167 3.49309 43.1085 4.15645 43.1085 4.94228C43.1085 5.50359 43.2513 5.8812 43.5983 6.2486C44.0066 6.68744 44.3637 6.83032 45.0067 6.83032C46.1395 6.83032 46.8845 6.08531 46.8845 4.95249C46.8845 4.63612 46.8233 4.2483 46.7417 4.09522C46.5478 3.72782 46.0783 3.29918 45.7313 3.16651C45.3333 3.01342 44.5475 3.03383 44.18 3.19712ZM45.3333 4.6055C45.4047 4.67694 45.4558 4.81982 45.4558 4.94228C45.4558 5.06475 45.4047 5.20763 45.3333 5.27907C45.2618 5.35051 45.119 5.40154 44.9965 5.40154C44.874 5.40154 44.7312 5.35051 44.6597 5.27907C44.5883 5.20763 44.5372 5.06475 44.5372 4.94228C44.5372 4.81982 44.5883 4.67694 44.6597 4.6055C44.7312 4.53406 44.874 4.48303 44.9965 4.48303C45.119 4.48303 45.2618 4.53406 45.3333 4.6055Z" fill="#FF3E54"/>
<path d="M25.5752 14.8926C25.1466 15.158 24.9425 15.6376 24.9425 16.4235V17.0358H20.3499H15.7676L15.635 16.597C15.4513 15.9846 14.6246 15.1784 13.9918 15.0049C12.4304 14.566 10.8995 15.3825 10.5526 16.8419C10.0525 18.934 11.8793 20.6588 13.9612 20.0567C14.6144 19.8627 15.2369 19.3627 15.4921 18.8218L15.6656 18.4646H18.6966H21.7175L20.9623 18.9238C18.2272 20.618 16.084 23.3531 15.1859 26.2923L14.9308 27.1393H14.3082C13.4612 27.1393 13.0223 27.3639 12.7774 27.9252C12.6039 28.3232 12.5835 28.5681 12.6141 30.15C12.6447 31.7523 12.6651 31.9462 12.859 32.2115C13.2775 32.7728 13.5938 32.8545 15.5023 32.8545C18.2374 32.8545 18.3088 32.7728 18.3088 29.9459C18.3088 28.2824 18.2884 28.0783 18.1047 27.7721C17.87 27.3843 17.3699 27.1393 16.829 27.1393C16.482 27.1393 16.4718 27.1291 16.533 26.8536C16.7474 25.9861 17.5944 24.2716 18.2986 23.3224C19.3192 21.9243 20.7276 20.6894 22.2176 19.8934C22.9728 19.4851 24.5138 18.8728 24.7792 18.8728C24.8608 18.8728 24.9629 19.0667 25.0343 19.3218C25.1058 19.6076 25.2588 19.8627 25.463 20.0362L25.7793 20.3016H27.7694C29.4636 20.3016 29.8003 20.271 30.0555 20.1281C30.3821 19.9342 30.6576 19.4341 30.6576 19.0463V18.7912L31.1985 18.9442C32.015 19.1688 34.0969 20.2301 34.8419 20.8017C36.6279 22.1488 38.0975 24.1185 38.8731 26.18C39.1997 27.0577 39.1997 27.1393 38.8221 27.1393C38.3322 27.1393 37.822 27.4047 37.5974 27.7721C37.4137 28.0783 37.3933 28.2824 37.3933 29.9969C37.3933 32.8035 37.4443 32.8545 40.2203 32.8545C42.1083 32.8545 42.4349 32.7728 42.8431 32.2115C43.037 31.9564 43.0574 31.7523 43.0881 30.2623C43.1289 28.3844 43.0472 27.9252 42.5982 27.4965C42.3124 27.221 42.2002 27.1904 41.496 27.1598L40.7101 27.1189L40.4244 26.2413C39.4447 23.1694 37.2811 20.4547 34.5562 18.8626L33.8724 18.4646H36.9545C39.9958 18.4646 40.0366 18.4646 40.0978 18.6789C40.2101 19.0157 40.8632 19.679 41.3021 19.9138C42.2002 20.3628 43.4861 20.2199 44.2719 19.577C45.3639 18.6687 45.4558 16.7296 44.4556 15.6784C43.7514 14.9334 42.3839 14.6681 41.3939 15.0967C40.751 15.3723 40.1386 16.0356 39.9549 16.6174L39.8325 17.0358H35.2501H30.6576V16.4235C30.6576 15.6376 30.4535 15.158 30.0249 14.8926C29.7187 14.7089 29.5146 14.6885 27.8 14.6885C26.0855 14.6885 25.8814 14.7089 25.5752 14.8926ZM29.2288 17.5461V18.9749H27.8H26.3713V17.5461V16.1173H27.8H29.2288V17.5461ZM13.9306 16.6072C14.3286 16.9644 14.4409 17.6481 14.1755 18.1482C14.0021 18.4952 13.5122 18.7707 13.0835 18.7707C12.5427 18.7707 11.8793 18.0972 11.8793 17.5461C11.8793 17.4236 11.9507 17.1787 12.0324 16.995C12.3692 16.2908 13.3489 16.0867 13.9306 16.6072ZM43.0983 16.4745C43.2616 16.5561 43.4657 16.7909 43.5677 16.995C44.1801 18.2911 42.5267 19.3831 41.5878 18.3013C41.3327 18.0155 41.2715 17.8522 41.2715 17.4848C41.2715 17.0868 41.3225 16.9644 41.6184 16.6684C41.9042 16.3826 42.0471 16.3214 42.3839 16.3214C42.6186 16.3214 42.9452 16.3928 43.0983 16.4745ZM16.88 29.9969V31.4257H15.4513H14.0225V29.9969V28.5681H15.4513H16.88V29.9969ZM41.6082 29.5581C41.6491 30.1092 41.6797 30.7521 41.6797 30.9869V31.4257H40.2509H38.8221V31.0889C38.8221 30.895 38.7915 30.2521 38.7507 29.6601L38.6894 28.5681H40.1182H41.547L41.6082 29.5581Z" fill="#FF3E54"/>
</svg>
