<svg width="50" height="50" viewBox="0 0 50 50" fill="none" xmlns="http://www.w3.org/2000/svg">
<path d="M4.24805 14.9414V29.8828H2.88086H1.51367V18.7695C1.51367 8.24219 1.52344 7.64648 1.69922 7.27539C1.85547 6.91406 2.31445 6.43555 2.72461 6.20117C2.89062 6.10352 2.88086 6.05469 2.62695 5.41992C2.48047 5.03906 2.35352 4.7168 2.33398 4.70703C2.32422 4.6875 2.08008 4.79492 1.80664 4.94141C1.20117 5.27344 0.644531 5.85938 0.273438 6.5625L0 7.08008V21.8262V36.5723L0.322266 37.2266C0.693359 37.9883 1.29883 38.5742 2.09961 38.9551L2.63672 39.209L9.99023 39.2383L17.334 39.2578V41.8848V44.502L15.9277 44.5508C14.6387 44.5996 14.4629 44.6289 13.9746 44.8633C13.6719 45.0098 13.2812 45.3027 13.0957 45.5273C12.5488 46.1621 12.4512 46.5918 12.4512 48.4082V50H24.9512H37.4512V48.4082C37.4512 46.5918 37.3535 46.1621 36.8066 45.5273C36.6211 45.3027 36.2305 45.0098 35.9277 44.8633C35.4395 44.6289 35.2637 44.5996 33.9746 44.5508L32.5684 44.502V41.8848V39.2578L39.9219 39.2383L47.2656 39.209L47.8027 38.9551C48.6035 38.5742 49.209 37.9883 49.5801 37.2266L49.9023 36.5723V21.875V7.17773L49.5898 6.5332C49.209 5.76172 48.5938 5.16602 47.8223 4.80469L47.2656 4.54102L34.8438 4.51172L22.4121 4.49219V5.27344V6.05469H34.5996C46.2402 6.05469 46.7969 6.06445 47.168 6.24023C47.3828 6.33789 47.6758 6.54297 47.8223 6.69922C48.418 7.34375 48.3887 6.66016 48.3887 18.7988V29.8828H35.4004H22.4121V19.1016V8.32031L20.6055 5.30273C19.6094 3.65234 18.7598 2.28516 18.7109 2.26562C18.6621 2.24609 17.8027 3.59375 16.8066 5.26367L14.9902 8.28125V19.082V29.8828H13.8184H12.6465V14.9414V0H8.44727H4.24805V14.9414ZM11.084 15.7227V29.8828H8.44727H5.81055V29.0527V28.2227H7.56836H9.32617V27.4414V26.6602H7.56836H5.81055V25.9766V25.293H6.78711H7.76367V24.5117V23.7305H6.78711H5.81055V23.0469V22.3633H7.56836H9.32617V21.582V20.8008H7.56836H5.81055V20.1172V19.4336H6.78711H7.76367V18.6523V17.8711H6.78711H5.81055V17.1875V16.5039H7.56836H9.32617V15.7227V14.9414H7.56836H5.81055V14.2578V13.5742H6.78711H7.76367V12.793V12.0117H6.78711H5.81055V11.3281V10.6445H7.56836H9.32617V9.86328V9.08203H7.56836H5.81055V8.39844V7.71484H6.78711H7.76367V6.93359V6.15234H6.78711H5.81055V5.46875V4.78516H7.56836H9.32617V4.00391V3.22266H7.56836H5.81055V2.39258V1.5625H8.44727H11.084V15.7227ZM19.6484 6.78711L20.5371 8.29102L19.6094 8.83789L18.6914 9.39453L17.7637 8.83789L16.8457 8.29102L17.0898 7.88086C17.2266 7.65625 17.627 6.97266 17.9883 6.36719C18.3496 5.77148 18.6719 5.27344 18.7012 5.27344C18.7305 5.27344 19.1504 5.95703 19.6484 6.78711ZM19.5508 10.7324C20.0195 10.4492 20.5078 10.1562 20.6348 10.0781L20.8496 9.94141V17.959V25.9766H18.7012H16.5527V17.9688V9.9707L17.6172 10.6055L18.6914 11.25L19.5508 10.7324ZM20.8496 28.7109V29.8828H18.7012H16.5527V28.7109V27.5391H18.7012H20.8496V28.7109ZM48.3887 33.7598C48.3887 36.3672 48.3301 36.6113 47.6953 37.1484C47.002 37.7344 48.6133 37.6953 24.9512 37.6953C1.28906 37.6953 2.90039 37.7344 2.20703 37.1484C1.57227 36.6113 1.51367 36.3672 1.51367 33.7598V31.4453H24.9512H48.3887V33.7598ZM31.0059 41.8945V44.5312H24.9512H18.8965V41.8945V39.2578H24.9512H31.0059V41.8945ZM35.332 46.3281C35.7422 46.6113 35.8887 46.9727 35.8887 47.7539V48.4375H24.9512H14.0137V47.7539C14.0137 46.8066 14.2969 46.3379 14.9414 46.1621C15.0488 46.1328 19.6191 46.123 25.0977 46.1328C34.707 46.1426 35.0684 46.1523 35.332 46.3281Z" fill="#FF3E54"/>
<path d="M17.9199 15.1855V17.6758H18.7012H19.4824V15.1855V12.6953H18.7012H17.9199V15.1855Z" fill="#FF3E54"/>
<path d="M17.9199 19.8242V20.6055H18.7012H19.4824V19.8242V19.043H18.7012H17.9199V19.8242Z" fill="#FF3E54"/>
<path d="M17.9199 23.2422V24.5117H18.7012H19.4824V23.2422V21.9727H18.7012H17.9199V23.2422Z" fill="#FF3E54"/>
<path d="M21.2402 34.5703V35.3516H22.0215H22.8027V34.5703V33.7891H22.0215H21.2402V34.5703Z" fill="#FF3E54"/>
<path d="M24.1699 34.5703V35.3516H24.9512H25.7324V34.5703V33.7891H24.9512H24.1699V34.5703Z" fill="#FF3E54"/>
<path d="M27.0996 34.5703V35.3516H27.8809H28.6621V34.5703V33.7891H27.8809H27.0996V34.5703Z" fill="#FF3E54"/>
<path d="M23.7793 8.20312V8.98438H24.5605H25.3418V17.9688V26.9531H24.5605H23.7793V27.7344V28.5156H26.0742H28.3691V27.7344V26.9531H27.6367H26.9043V17.9688V8.98438H27.6367H28.3691V8.20312V7.42188H26.0742H23.7793V8.20312Z" fill="#FF3E54"/>
<path d="M29.834 11.6211V15.8203H38.4277H47.0215V11.6211V7.42188H38.4277H29.834V11.6211ZM45.459 11.6211V14.2578H38.4277H31.3965V11.6211V8.98438H38.4277H45.459V11.6211Z" fill="#FF3E54"/>
<path d="M29.834 19.9219V22.6562H33.7891H37.7441V19.9219V17.1875H33.7891H29.834V19.9219ZM36.1816 19.9219V21.0938H33.7891H31.3965V19.9219V18.75H33.7891H36.1816V19.9219Z" fill="#FF3E54"/>
<path d="M39.1113 19.9219V22.6562H43.0664H47.0215V19.9219V17.1875H43.0664H39.1113V19.9219ZM45.459 19.9219V21.0938H43.0664H40.6738V19.9219V18.75H43.0664H45.459V19.9219Z" fill="#FF3E54"/>
<path d="M30.6152 25.293V26.0742H32.373H34.1309V25.293V24.5117H32.373H30.6152V25.293Z" fill="#FF3E54"/>
<path d="M35.498 25.293V26.0742H36.2793H37.0605V25.293V24.5117H36.2793H35.498V25.293Z" fill="#FF3E54"/>
<path d="M39.8926 25.293V26.0742H41.6504H43.4082V25.293V24.5117H41.6504H39.8926V25.293Z" fill="#FF3E54"/>
<path d="M44.7754 25.293V26.0742H45.5566H46.3379V25.293V24.5117H45.5566H44.7754V25.293Z" fill="#FF3E54"/>
</svg>
