<svg width="51" height="50" viewBox="0 0 51 50" fill="none" xmlns="http://www.w3.org/2000/svg">
<path d="M16.5931 0.216511C13.5515 0.86232 10.7704 2.68516 8.94755 5.23714C8.11425 6.40376 7.26012 8.33076 6.96847 9.68488C6.91639 9.92445 6.83306 9.96612 5.99976 10.1224C3.26028 10.6432 0.937462 12.841 0.239574 15.5805C-0.041665 16.6742 -0.041665 18.3199 0.239574 19.4137C0.895797 21.9969 3.03113 24.1322 5.61436 24.7884C6.37474 24.9863 6.80181 24.9968 14.0619 24.9968H21.697V26.6529V28.3195L19.0201 28.3508L16.3327 28.382L15.7077 28.6841C14.9056 29.0799 14.114 29.8716 13.7182 30.6736L13.4161 31.2986L13.364 37.5483C13.312 43.6523 13.3015 43.8085 13.0932 44.2668C12.8224 44.8397 12.312 45.3397 11.7495 45.5897C11.4058 45.7355 10.9371 45.7772 8.9788 45.8084L6.61432 45.8501L6.5414 45.5376C6.37474 44.746 5.28104 43.6939 4.35399 43.4335C3.58319 43.2148 2.36449 43.3398 1.70826 43.6939C0.624975 44.2876 0 45.3813 0 46.6625C0 47.9437 0.624975 49.0374 1.70826 49.6312C2.36449 49.9853 3.58319 50.1103 4.35399 49.8916C5.27062 49.6312 6.37474 48.5791 6.5414 47.8083L6.6039 47.5063L9.33295 47.475L12.062 47.4438L12.687 47.1417C13.489 46.7459 14.2807 45.9542 14.6765 45.1522L14.9786 44.5272L15.0306 38.2775C15.0931 31.3507 15.0619 31.6111 15.791 30.8403C16.4681 30.132 16.791 30.0591 19.3846 30.0174L21.697 29.9757V32.7673C21.697 35.538 21.697 35.5484 21.9574 35.9859C22.2283 36.4546 23.0303 37.0692 23.749 37.3504L24.1969 37.5171V42.9231V48.3291H22.947H21.697V49.1624V49.9957H23.572C25.3115 49.9957 25.4573 49.9853 25.6552 49.7874C25.8635 49.5791 25.8635 49.4437 25.8635 43.7981C25.8635 40.6211 25.8948 38.0171 25.9469 38.0171C25.9885 38.0171 26.4885 38.09 27.0614 38.1733C27.6343 38.2566 28.353 38.3295 28.6551 38.3295H29.1967V42.7044C29.1967 46.9438 29.2071 47.0896 29.4051 47.2875C29.603 47.4854 29.7488 47.4958 33.6132 47.4958H37.6131L37.686 47.7979C37.8526 48.5791 38.9568 49.6312 39.8734 49.8916C40.5504 50.0791 41.8421 49.9853 42.4045 49.6937C43.0399 49.3708 43.6545 48.7145 43.9566 48.0479C44.3107 47.2771 44.3315 46.1105 43.9982 45.3605C43.4357 44.1001 42.4879 43.4231 41.1546 43.3502C40.1755 43.2877 39.5713 43.4439 38.9255 43.9022C38.3839 44.2876 37.7797 45.0793 37.686 45.5272L37.6131 45.8292H34.2382H30.8633V42.0794V38.3295H31.4154C32.1029 38.3295 33.9049 38.0691 34.7486 37.8608C36.4673 37.4129 37.6547 36.7567 38.1026 35.9963C38.3318 35.6005 38.363 35.4338 38.363 34.4443V33.3298H39.5505C40.1963 33.3298 40.8838 33.3818 41.0713 33.4443C41.665 33.6527 41.6962 33.8506 41.6962 37.7567C41.6962 41.1107 41.7066 41.2565 41.9045 41.4544C42.1025 41.6523 42.2483 41.6627 44.4044 41.6627H46.696V40.8294V39.9961H45.0294H43.3628V36.7671C43.3628 33.1943 43.342 33.0798 42.7066 32.4027C42.1025 31.7673 41.7379 31.6632 39.9567 31.6632H38.363V28.33V24.9968H40.9983C43.2899 24.9968 43.7482 24.9655 44.4461 24.7884C47.0293 24.1322 49.1647 21.9969 49.8209 19.4137C50.1021 18.3199 50.1021 16.6742 49.8209 15.5805C49.1647 12.9972 47.0293 10.8619 44.4461 10.2057C43.842 10.0494 43.2899 9.99736 42.2691 9.99736H40.8942L40.7171 9.16407C40.1442 6.48709 37.9464 4.21635 35.2798 3.5393C33.3007 3.0289 30.655 3.45596 29.2488 4.508C29.0613 4.65383 28.9988 4.61217 28.3322 3.89345C26.551 1.98727 24.1136 0.653996 21.4783 0.154015C20.2492 -0.0751419 17.8534 -0.0438957 16.5931 0.216511ZM22.0512 2.12268C25.676 3.21639 28.3947 5.8517 29.4571 9.28906C29.6134 9.79946 29.78 10.2057 29.8321 10.2057C29.8842 10.2057 30.2696 10.1328 30.7071 10.0286C31.4675 9.86195 31.4779 9.85154 31.4154 9.59113C31.2383 8.84116 30.8217 7.72662 30.4467 6.97665L30.03 6.14336L30.4675 5.86212C31.5716 5.16423 33.4778 4.90382 34.8111 5.25797C36.1235 5.60171 37.3214 6.44543 38.0818 7.55996C38.7588 8.54951 39.0088 9.30989 39.0713 10.5078C39.1442 11.9244 38.863 12.966 38.1443 14.0389C37.9776 14.2889 37.8422 14.5076 37.863 14.518C37.8839 14.5388 38.1651 14.7576 38.4984 15.0284C38.8422 15.2992 39.1547 15.518 39.1963 15.518C39.5296 15.518 40.4775 13.6222 40.7275 12.4556L40.9046 11.6327L42.165 11.7056C44.0607 11.8098 45.0086 12.1223 46.1856 13.0597C46.8835 13.6118 47.7168 14.8097 47.9981 15.6742C48.2897 16.5492 48.2897 18.4449 47.9981 19.3199C47.5606 20.6636 46.3731 22.0177 45.0711 22.6635C44.0399 23.1635 43.5711 23.2364 40.8942 23.2989L38.363 23.3614V22.5073V21.6636H39.8213C41.8108 21.6636 41.6962 21.799 41.6962 19.372V17.4971H42.1129H42.5295V16.6638V15.8305H41.4879C39.988 15.8305 40.0296 15.7575 40.0296 18.122V19.997H39.1963C38.363 19.997 38.363 19.997 38.363 19.7157C38.363 18.9658 37.3214 17.997 36.009 17.5283C34.7278 17.0596 32.6237 16.6742 31.4154 16.6638H30.8633V15.518C30.8633 14.2264 30.7383 13.8097 30.2071 13.2368C29.5509 12.5493 29.3321 12.4973 26.5718 12.4973H24.1136L24.0407 12.1952C23.874 11.414 22.7699 10.3619 21.8533 10.1015C21.0825 9.88279 19.8638 10.0078 19.2076 10.3619C18.1243 10.9557 17.4993 12.0494 17.4993 13.3306C17.4993 14.6118 18.1243 15.7055 19.2076 16.2992C19.8638 16.6533 21.0825 16.7783 21.8533 16.5596C22.7699 16.2992 23.874 15.2472 24.0407 14.4659L24.1136 14.1639H26.1656C27.4364 14.1639 28.3634 14.2055 28.5718 14.2784C29.0197 14.4347 29.1967 14.893 29.1967 15.8617V16.6325L28.1655 16.695C25.1969 16.8929 22.6345 17.8408 21.9574 18.997C21.7075 19.4241 21.697 19.5074 21.697 21.3927V23.3406L14.1765 23.2989C5.98934 23.2572 6.23933 23.2781 4.98938 22.6635C3.68735 22.0177 2.4999 20.6636 2.06242 19.3199C1.77076 18.4449 1.77076 16.5492 2.06242 15.6742C2.34365 14.8097 3.17695 13.6118 3.87484 13.0597C4.9998 12.1639 6.156 11.7577 7.57261 11.7577C10.0933 11.7681 12.3537 13.5076 13.0932 16.0284C13.187 16.3409 13.2599 16.7992 13.2599 17.0492V17.4971H14.1453H15.0306V16.945C15.0202 15.1534 13.8744 12.9347 12.2703 11.6327C11.5308 11.039 10.2183 10.3828 9.38504 10.1849C8.67673 10.0286 8.66632 10.0078 9.05172 8.93491C10.1767 5.82045 12.562 3.44555 15.6556 2.35184C17.0618 1.85186 17.6555 1.76853 19.4575 1.8102C20.895 1.84145 21.2491 1.88311 22.0512 2.12268ZM21.6762 11.9765C23.0303 12.7993 22.447 14.893 20.8637 14.893C19.9784 14.893 19.3013 14.2159 19.3013 13.3306C19.3013 12.7681 19.5825 12.2681 20.0513 11.9765C20.2596 11.8515 20.5825 11.7681 20.8637 11.7681C21.145 11.7681 21.4679 11.8515 21.6762 11.9765ZM32.8841 18.6012C34.4986 18.8303 36.1027 19.3824 36.4777 19.8303C36.5923 19.9657 36.5923 20.0282 36.4777 20.1636C36.1027 20.6115 34.2694 21.2261 32.582 21.4552C32.1237 21.5177 30.9779 21.5698 30.03 21.5698C29.0822 21.5698 27.9364 21.5177 27.4781 21.4552C25.7906 21.2261 23.9574 20.6115 23.5824 20.1636C23.3949 19.9449 23.5615 19.747 24.2178 19.4137C26.0094 18.5074 29.7488 18.1533 32.8841 18.6012ZM24.3011 22.5073C26.0614 23.1322 27.5718 23.351 30.03 23.351C32.7383 23.351 34.5194 23.0489 36.5194 22.2365C36.686 22.1635 36.6964 22.2677 36.6964 23.5593C36.6964 24.8822 36.686 24.9759 36.4673 25.1738C36.0819 25.5176 35.4048 25.8196 34.3736 26.0905C32.9778 26.455 31.9675 26.5696 30.03 26.5696C28.0926 26.5696 27.0822 26.455 25.6865 26.0905C24.6553 25.8196 23.9782 25.5176 23.6032 25.1738C23.3741 24.9759 23.3636 24.8822 23.3636 23.5593C23.3636 22.2677 23.3741 22.1635 23.5511 22.2365C23.6449 22.2781 23.9886 22.4031 24.3011 22.5073ZM24.3011 27.5071C26.0614 28.132 27.5718 28.3508 30.03 28.3508C32.7383 28.3508 34.5194 28.0487 36.5194 27.2362C36.686 27.1633 36.6964 27.2675 36.6964 28.5591C36.6964 29.882 36.686 29.9757 36.4673 30.1736C36.0819 30.5174 35.4048 30.8194 34.3736 31.0903C32.9778 31.4548 31.9675 31.5694 30.03 31.5694C28.0926 31.5694 27.0822 31.4548 25.6865 31.0903C24.6553 30.8194 23.9782 30.5174 23.6032 30.1736C23.3741 29.9757 23.3636 29.882 23.3636 28.5591C23.3636 27.2675 23.3741 27.1633 23.5511 27.2362C23.6449 27.2779 23.9886 27.4029 24.3011 27.5071ZM24.3011 32.5069C26.0614 33.1318 27.5718 33.3506 30.03 33.3506C32.7383 33.3506 34.5194 33.0485 36.5194 32.236C36.686 32.1631 36.6964 32.2673 36.6964 33.5589C36.6964 34.8818 36.686 34.9755 36.4673 35.1734C36.0819 35.5172 35.4048 35.8192 34.3736 36.0901C32.9778 36.4546 31.9675 36.5692 30.03 36.5692C28.0926 36.5692 27.0822 36.4546 25.6865 36.0901C24.6553 35.8192 23.9782 35.5172 23.6032 35.1734C23.3741 34.9755 23.3636 34.8818 23.3636 33.5589C23.3636 32.2673 23.3741 32.1631 23.5511 32.236C23.6449 32.2777 23.9886 32.4027 24.3011 32.5069ZM4.17691 45.3084C4.89563 45.7459 5.15604 46.7563 4.71856 47.475C3.89568 48.8291 1.80201 48.2458 1.80201 46.6625C1.80201 45.4543 3.14571 44.6835 4.17691 45.3084ZM41.6754 45.3084C43.0295 46.1313 42.4462 48.225 40.8629 48.225C39.2797 48.225 38.6963 46.1313 40.0505 45.3084C40.4984 45.0376 41.2275 45.0376 41.6754 45.3084Z" fill="#FF3E54"/>
<path d="M6.20806 13.4869C5.16643 13.8098 4.22897 14.6535 3.69774 15.7264C3.43734 16.2472 3.4165 16.4035 3.4165 17.4972C3.4165 18.6117 3.43734 18.7367 3.71858 19.32C4.11439 20.1221 4.90603 20.9137 5.70808 21.3095L6.33305 21.6116L10.2704 21.6428L14.1973 21.6741V20.8408V20.0075L10.635 19.9762C7.2601 19.945 7.04136 19.9346 6.59346 19.7262C4.67687 18.8304 4.6352 16.2576 6.51013 15.2993C6.71845 15.1952 7.04136 15.1014 7.21843 15.1014H7.53092V14.216V13.3307L7.09344 13.3411C6.84345 13.3411 6.44763 13.4036 6.20806 13.4869Z" fill="#FF3E54"/>
<path d="M44.1961 16.6638V17.4971H45.0294H45.8627V16.6638V15.8305H45.0294H44.1961V16.6638Z" fill="#FF3E54"/>
<path d="M48.3626 40.8295V41.6628H49.1959H50.0292V40.8295V39.9962H49.1959H48.3626V40.8295Z" fill="#FF3E54"/>
<path d="M18.3638 49.1626V49.9958H19.1971H20.0304V49.1626V48.3293H19.1971H18.3638V49.1626Z" fill="#FF3E54"/>
</svg>
